<svg xmlns="http://www.w3.org/2000/svg" xmlns:xlink="http://www.w3.org/1999/xlink" width="85.88" height="82.738" viewBox="0 0 85.88 82.738">
  <defs>
    <filter id="Path_261" x="0" y="0" width="85.88" height="82.738" filterUnits="userSpaceOnUse">
      <feOffset dy="7" input="SourceAlpha"/>
      <feGaussianBlur stdDeviation="3" result="blur"/>
      <feFlood flood-opacity="0.161"/>
      <feComposite operator="in" in2="blur"/>
      <feComposite in="SourceGraphic"/>
    </filter>
  </defs>
  <g id="_4" data-name="4" transform="translate(-1515.041 -355.13)">
    <g transform="matrix(1, 0, 0, 1, 1515.04, 355.13)" filter="url(#Path_261)">
      <path id="Path_261-2" data-name="Path 261" d="M1561.481,415.087a10.157,10.157,0,0,0-7,0l-15.059,6.494c-1.925.828-3.342-.2-3.147-2.286l1.52-16.326a10.166,10.166,0,0,0-2.162-6.66L1524.807,384c-1.384-1.575-.841-3.24,1.2-3.7l15.994-3.6a10.162,10.162,0,0,0,5.666-4.115l8.362-14.1c1.071-1.8,2.822-1.8,3.89,0l8.364,14.1a10.151,10.151,0,0,0,5.663,4.116l16,3.6c2.045.46,2.585,2.125,1.2,3.7l-10.83,12.314a10.141,10.141,0,0,0-2.162,6.659l1.522,16.326c.2,2.088-1.219,3.114-3.145,2.286Z" transform="translate(-1515.04 -355.13)" fill="#ffc100"/>
    </g>
    <g id="Group_243" data-name="Group 243" transform="translate(1543.605 384.52)">
      <g id="Group_242" data-name="Group 242" transform="translate(0 0)">
        <path id="Path_262" data-name="Path 262" d="M1749.654,559.244c-.183-.024-.287-.344-.742-.577a4.949,4.949,0,0,0-2.1-.444,4.875,4.875,0,0,0-2.1.444c-.46.233-.564.553-.751.577-.142.056-.363-.581.21-1.21a3.687,3.687,0,0,1,2.638-.989,3.649,3.649,0,0,1,2.635.989C1750.021,558.663,1749.8,559.3,1749.654,559.244Z" transform="translate(-1725.724 -550.195)"/>
        <path id="Path_263" data-name="Path 263" d="M1732.791,519.129c-1.753.123-2.061-2.078-2.061-2.078s.319,1.128,2.244,1.334,4.439-1.306,4.439-1.306A8.016,8.016,0,0,1,1732.791,519.129Z" transform="translate(-1714.894 -517.051)" opacity="0.3" style="mix-blend-mode: multiply;isolation: isolate"/>
        <path id="Path_264" data-name="Path 264" d="M1723.446,540.564s-.432,1.974.214,2.772a1.4,1.4,0,0,0,1.308.529s-.556.519-1.008.428a1.348,1.348,0,0,1-.832-.53.946.946,0,0,1-.476.456.993.993,0,0,1-.472.082,4,4,0,0,0,.455-1.717A4.236,4.236,0,0,1,1723.446,540.564Z" transform="translate(-1707.809 -536.537)" opacity="0.3" style="mix-blend-mode: multiply;isolation: isolate"/>
        <path id="Path_265" data-name="Path 265" d="M1786.06,556.729a3.187,3.187,0,0,1,1.811,1.319,4.459,4.459,0,0,1,.747,2.126,2.464,2.464,0,0,0,.139-2.166,3.338,3.338,0,0,0-.749-1.127,3.575,3.575,0,0,0,.679-.8,2.157,2.157,0,0,0,.235-.963,4.939,4.939,0,0,1-1.212.941A11.719,11.719,0,0,1,1786.06,556.729Z" transform="translate(-1760.748 -548.6)" opacity="0.3" style="mix-blend-mode: multiply;isolation: isolate"/>
        <path id="Path_266" data-name="Path 266" d="M1641.171,556.729a3.193,3.193,0,0,0-1.824,1.319,4.561,4.561,0,0,0-.742,2.126,2.455,2.455,0,0,1-.142-2.166,3.363,3.363,0,0,1,.751-1.127,3.578,3.578,0,0,1-.678-.8,2.168,2.168,0,0,1-.233-.963,4.971,4.971,0,0,0,1.208.941A11.846,11.846,0,0,0,1641.171,556.729Z" transform="translate(-1638.271 -548.6)" opacity="0.3" style="mix-blend-mode: multiply;isolation: isolate"/>
        <path id="Path_267" data-name="Path 267" d="M1771.23,595.309c.851,1.366-.721,2.462-.721,2.462a1.92,1.92,0,0,0-.271-1.863,2.289,2.289,0,0,0-1.6-1.153A1.85,1.85,0,0,1,1771.23,595.309Z" transform="translate(-1746.308 -581.182)" opacity="0.3" style="mix-blend-mode: multiply;isolation: isolate"/>
        <path id="Path_268" data-name="Path 268" d="M1720.588,612.309c.26.063-.692,2.891-4.033,4.056-3.308.972-5.791-.3-5.686-.557.053-.488,2.615.015,5.234-.806C1718.741,614.153,1720.19,611.98,1720.588,612.309Z" transform="translate(-1698.432 -595.966)"/>
        <path id="Path_269" data-name="Path 269" d="M1734.8,534.135c3.151,0,4.81-2.994,7.8-2.994s2.416-.258,2.416-.258-.856-1.677-3.605-1.677-4.374,3.507-6.611,3.507-2.338-.712-2.338-.712S1732,534.135,1734.8,534.135Z" transform="translate(-1716.302 -527.124)"/>
        <path id="Path_270" data-name="Path 270" d="M1671.325,554.619a2.862,2.862,0,1,1-2.843-3.155A3.009,3.009,0,0,1,1671.325,554.619Z" transform="translate(-1660.946 -545.57)"/>
        <path id="Path_271" data-name="Path 271" d="M1674.808,560.988a.9.9,0,1,1-1.809,0,.9.9,0,0,1,1.809,0Z" transform="translate(-1667.051 -552.716)" fill="#fff"/>
        <path id="Path_272" data-name="Path 272" d="M1671.937,557.2a.5.5,0,0,1-1,0,.5.5,0,1,1,1,0Z" transform="translate(-1665.34 -549.908)" fill="#fff"/>
        <path id="Path_273" data-name="Path 273" d="M1658.531,521.327c1.5.315,1.208,2.21-.254,2.007-2.282-.309-6.286-2.826-9.65-.851-.7.415-1.262-.1-.147-.951C1651.689,519.081,1656.809,520.968,1658.531,521.327Z" transform="translate(-1646.207 -519.74)"/>
      </g>
    </g>
  </g>
</svg>
