<svg width="201" height="165" fill="none" xmlns="http://www.w3.org/2000/svg"><g clip-path="url(#clip0)" filter="url(#filter0_d)"><mask id="a" mask-type="alpha" maskUnits="userSpaceOnUse" x="0" y="0" width="209" height="160"><path fill-rule="evenodd" clip-rule="evenodd" d="M.5 160h208.2V0H.5v160z" fill="#fff"/></mask><g mask="url(#a)"><path fill-rule="evenodd" clip-rule="evenodd" d="M155.6 148.6a72.6 72.6 0 0018.8-49A74.1 74.1 0 00100 26c-41.2 0-74.5 33-74.5 73.7 0 18.8 7 36.1 18.8 49h111.3z" fill="#F7F7F7"/><path fill-rule="evenodd" clip-rule="evenodd" d="M67.4 148.6h68a58.7 58.7 0 0026-49 59.7 59.7 0 00-60-59.3c-33.1 0-60 26.6-60 59.4a58.7 58.7 0 0026 48.9z" fill="#EDEDED"/><path fill-rule="evenodd" clip-rule="evenodd" d="M32 89.4a5 5 0 100 10.1 5 5 0 000-10.1zm0 2a3.1 3.1 0 110 6.2 3.1 3.1 0 010-6.3z" fill="#004CB8"/><path fill-rule="evenodd" clip-rule="evenodd" d="M108.6 10a5 5 0 100 10.1 5 5 0 000-10.1zm0 2a3.1 3.1 0 110 6.2 3.1 3.1 0 010-6.3z" fill="#FEBB02"/><path fill-rule="evenodd" clip-rule="evenodd" d="M31.3 124a2.9 2.9 0 11-5.8 0 2.9 2.9 0 015.8 0z" fill="#004CB8"/><path fill-rule="evenodd" clip-rule="evenodd" d="M18.3 76.4a2.9 2.9 0 11-5.8 0 2.9 2.9 0 015.8 0zM183.1 92.3a2.9 2.9 0 11-5.8 0 2.9 2.9 0 015.8 0zM138.3 40.3a2.9 2.9 0 11-5.8 0 2.9 2.9 0 015.8 0z" fill="#FEBA02"/><path fill-rule="evenodd" clip-rule="evenodd" d="M80.4 30.2a2.9 2.9 0 11-5.7 0 2.9 2.9 0 015.7 0zM164.3 31.6a2.9 2.9 0 11-5.8 0 2.9 2.9 0 015.8 0z" fill="#004CB8"/><path fill-rule="evenodd" clip-rule="evenodd" d="M40 46a2.9 2.9 0 11-5.8 0 2.9 2.9 0 015.7 0zM63 147.1a2.9 2.9 0 01-2.8-2.8V96.6c0-1.6 1.3-2.9 2.8-2.9h75.3c1.6 0 2.9 1.3 2.9 2.9v47.7c0 1.5-1.3 2.8-2.9 2.8H63z" fill="#FEBA02"/><path fill-rule="evenodd" clip-rule="evenodd" d="M96.3 147.1h8.7v-52h-8.7v52z" fill="#fff"/><path fill-rule="evenodd" clip-rule="evenodd" d="M62.9 90.8h3v56.3h-3c-1.5 0-2.7-1.3-2.7-2.8V93.7c0-1.6 1.2-2.9 2.7-2.9z" fill="#D89D00"/><path fill-rule="evenodd" clip-rule="evenodd" d="M138 147.1h-1.2V93.7h1.1c1.8 0 3.3 1.2 3.3 2.7v48c0 1.5-1.5 2.7-3.3 2.7z" fill="#FCD66F"/><path fill-rule="evenodd" clip-rule="evenodd" d="M136.8 95.2h4.4v10h-4.4v-10z" fill="#FCD66F"/><path fill-rule="evenodd" clip-rule="evenodd" d="M39.6 96.6a9.4 9.4 0 01-3.1-6.9c0-4.8 4.4-7.8 9-5.1 3 1.7 4.8 5.7 3.8 8.7-1.6 5-2.5 7.3-2.5 7.3s-4.1-1.2-7.2-4zm9 7.9l3.8-11.2c1.5-4.7-1.4-10.8-6-13.5-7-4.2-13.8.5-13.8 8 0 4.4 2.3 8.3 4.8 10.5a31.7 31.7 0 0011.2 6.2z" fill="#E2A808"/><path fill-rule="evenodd" clip-rule="evenodd" d="M43 105s-1 2.7-3.6 8.2c-1.6 3.3-6.4 5.1-10.2 4.2-6-1.5-7.2-7.5-3.4-11.5a11 11 0 018.2-3.2c4.8.1 9 2.4 9 2.4zm-9.6-6.4c-4.3-.1-10 1.3-13.9 5.5-6.6 7-4.5 17.2 5.8 19.7 6.5 1.6 14.6-1.5 17.4-7.2 4.6-9.4 6.5-13.7 6.5-13.7s-7.5-4-15.8-4.3z" fill="#EEB109"/><path fill-rule="evenodd" clip-rule="evenodd" d="M47.1 148.2a1 1 0 01-1.2.5l-13.6-5.4a1 1 0 01-.5-1.3l31.5-77.8a1 1 0 011.3-.5L78 69.2c.5.2.7.7.5 1.2l-31.5 77.8z" fill="#EEB109"/><path fill-rule="evenodd" clip-rule="evenodd" d="M49.4 142.5l-2.3 5.7a1 1 0 01-1.2.5l-13.6-5.4a1 1 0 01-.5-1.3l2.3-5.7 15.3 6.2z" fill="#DAA001"/><path fill-rule="evenodd" clip-rule="evenodd" d="M62.6 65.9l.7-1.8a1 1 0 011.3-.5L78 69.1c.5.2.8.7.6 1.2l-.7 1.8-15.4-6.2z" fill="#FFCE48"/><path fill-rule="evenodd" clip-rule="evenodd" d="M59.3 115.6l5.4-13.3-13.6-5.5-5.4 13.3 13.6 5.5z" fill="#fff"/><path fill-rule="evenodd" clip-rule="evenodd" d="M153 150H48.4c-.7 0-1.2-.6-1.2-1.4 0-.8.5-1.5 1.2-1.5H153c.7 0 1.2.7 1.2 1.5s-.5 1.4-1.2 1.4zM168.9 150h-9.2c-.6 0-1.2-.6-1.2-1.4 0-.8.6-1.5 1.2-1.5h9.2c.7 0 1.2.7 1.2 1.5s-.5 1.4-1.2 1.4zM176.2 150h-2.1c-.6 0-1.1-.6-1.1-1.4 0-.8.5-1.5 1-1.5h2.2c.6 0 1.1.7 1.1 1.5s-.5 1.4-1 1.4zM41.6 150h-9.1c-.7 0-1.2-.6-1.2-1.4 0-.8.5-1.5 1.2-1.5h9.1c.7 0 1.2.7 1.2 1.5s-.5 1.4-1.2 1.4zM25.8 150h-2.1c-.6 0-1.1-.6-1.1-1.4 0-.8.5-1.5 1-1.5h2.2c.6 0 1.1.7 1.1 1.5s-.5 1.4-1 1.4z" fill="#6A6A6A"/><path fill-rule="evenodd" clip-rule="evenodd" d="M159.2 60.5a5 5 0 100 10.1 5 5 0 000-10zm0 2a3.1 3.1 0 110 6.2 3.1 3.1 0 010-6.3zM46.5 23a5 5 0 100 10 5 5 0 000-10zm0 2a3.1 3.1 0 110 6.2 3.1 3.1 0 010-6.3z" fill="#004CB8"/><path fill-rule="evenodd" clip-rule="evenodd" d="M181 59a5 5 0 100 10.2 5 5 0 000-10.1zm0 2a3.1 3.1 0 110 6.3 3.1 3.1 0 010-6.3z" fill="#FEBA02"/><path fill-rule="evenodd" clip-rule="evenodd" d="M169.4 115.4a5 5 0 100 10 5 5 0 000-10zm0 1.9a3.1 3.1 0 110 6.3 3.1 3.1 0 010-6.3zM80 59.7a5 5 0 013-6.4l26-9.4a5 5 0 016.3 3l9 24.5a5 5 0 01-3 6.4l-26 9.4a5 5 0 01-6.4-3l-9-24.5z" fill="#004CB8"/><path d="M88.3 69.1l-.7-1.8v-.5L89 65l.4-.3 1.6-.5c.2-.1.3 0 .4.1l3.6 10.1c.1.2 0 .3-.1.4l-1.6.5c-.2.1-.3 0-.4-.1l-3-8-1.2 2h-.2zm12.2 3.8c-1.5.5-2.8.4-4-.3a6.3 6.3 0 01-2.7-3.5 6.3 6.3 0 01-.2-4.4 4.5 4.5 0 012.9-2.8c1.4-.5 2.8-.4 4 .3 1.2.7 2.1 1.9 2.7 3.5.6 1.6.7 3.1.2 4.4a4.6 4.6 0 01-3 2.8zm-.7-2c.8-.3 1.3-.8 1.5-1.6.2-.8.1-1.8-.3-2.8-.3-1-.9-1.8-1.5-2.3-.7-.5-1.5-.6-2.3-.3-.8.3-1.3.8-1.5 1.6-.2.9-.1 1.8.2 2.8.4 1 1 1.9 1.6 2.3.7.5 1.4.6 2.3.3zm6.5-6a3 3 0 01-2.4-.1 3 3 0 01-1.5-1.8 3 3 0 010-2.3 3 3 0 011.8-1.6 3 3 0 014 1.8 3 3 0 01-2 4zm-.6-1.6c.4-.1.7-.4.8-.7v-1c-.1-.5-.4-.7-.7-1h-1c-.4.2-.7.4-.8.8-.2.3-.2.6 0 1 .1.4.4.7.7.9h1zm3.4 6.3l-1.4.5h-.2v-.2l2.4-12.4c0-.2.2-.3.3-.4l1.4-.5h.1s.1.1 0 .2l-2.4 12.4c0 .2 0 .3-.2.4zm6-2a3 3 0 01-4-1.8 3 3 0 011.9-4 3 3 0 014 1.8 3 3 0 01-2 4zm-.6-1.6c.4-.1.7-.3.8-.7v-1c-.2-.4-.4-.7-.7-.9h-1c-.4.2-.7.4-.8.7-.2.3-.2.7 0 1 .1.5.3.7.6 1h1.1z" fill="#fff"/></g></g><defs><clipPath id="clip0"><path fill="#fff" transform="translate(.5)" d="M0 0h200v160H0z"/></clipPath><filter id="filter0_d" x="-9.5" y="-6" width="220" height="180" filterUnits="userSpaceOnUse" color-interpolation-filters="sRGB"><feFlood flood-opacity="0" result="BackgroundImageFix"/><feColorMatrix in="SourceAlpha" type="matrix" values="0 0 0 0 0 0 0 0 0 0 0 0 0 0 0 0 0 0 127 0"/><feOffset dy="4"/><feGaussianBlur stdDeviation="5"/><feColorMatrix type="matrix" values="0 0 0 0 0.219608 0 0 0 0 0.219608 0 0 0 0 0.219608 0 0 0 0.1 0"/><feBlend mode="normal" in2="BackgroundImageFix" result="effect1_dropShadow"/><feBlend mode="normal" in="SourceGraphic" in2="effect1_dropShadow" result="shape"/></filter></defs></svg>
